<?xml version="1.0" encoding="UTF-8" standalone="no"?>
<!DOCTYPE svg PUBLIC "-//W3C//DTD SVG 1.1//EN"
 "http://www.w3.org/Graphics/SVG/1.1/DTD/svg11.dtd">
<!-- Generated by graphviz version 2.47.3 (20210619.1520)
 -->
<!-- Title: dependencies Pages: 1 -->
<svg width="1313pt" height="247pt"
 viewBox="0.00 0.00 1313.00 246.80" xmlns="http://www.w3.org/2000/svg" xmlns:xlink="http://www.w3.org/1999/xlink">
<g id="graph0" class="graph" transform="scale(1 1) rotate(0) translate(4 242.8)">
<title>dependencies</title>
<polygon fill="white" stroke="transparent" points="-4,4 -4,-242.8 1309,-242.8 1309,4 -4,4"/>
<text text-anchor="middle" x="652.5" y="-8.2" font-family="sans-serif" font-size="14.00">dependencies</text>
<g id="clust1" class="cluster">
<title>cluster_AppModule</title>
<polygon fill="none" stroke="black" stroke-dasharray="1,5" points="8,-32.8 8,-230.8 1297,-230.8 1297,-32.8 8,-32.8"/>
</g>
<g id="clust11" class="cluster">
<title>cluster_AppModule_imports</title>
<polygon fill="none" stroke="black" points="1145,-40.8 1145,-92.8 1289,-92.8 1289,-40.8 1145,-40.8"/>
</g>
<g id="clust13" class="cluster">
<title>cluster_AppModule_bootstrap</title>
<polygon fill="none" stroke="black" points="606,-170.8 606,-222.8 730,-222.8 730,-170.8 606,-170.8"/>
</g>
<g id="clust2" class="cluster">
<title>cluster_AppModule_declarations</title>
<polygon fill="none" stroke="black" points="16,-40.8 16,-92.8 1137,-92.8 1137,-40.8 16,-40.8"/>
</g>
<!-- AppComponent -->
<g id="node1" class="node">
<title>AppComponent</title>
<polygon fill="#ffffb3" stroke="black" points="1128.94,-84.8 1023.06,-84.8 1023.06,-48.8 1128.94,-48.8 1128.94,-84.8"/>
<text text-anchor="middle" x="1076" y="-62.6" font-family="Times,serif" font-size="14.00">AppComponent</text>
</g>
<!-- AppModule -->
<g id="node9" class="node">
<title>AppModule</title>
<polygon fill="#8dd3c7" stroke="black" points="709.66,-149.8 706.66,-153.8 685.66,-153.8 682.66,-149.8 626.34,-149.8 626.34,-113.8 709.66,-113.8 709.66,-149.8"/>
<text text-anchor="middle" x="668" y="-127.6" font-family="Times,serif" font-size="14.00">AppModule</text>
</g>
<!-- AppComponent&#45;&gt;AppModule -->
<g id="edge1" class="edge">
<title>AppComponent&#45;&gt;AppModule</title>
<path fill="none" stroke="black" d="M1076,-84.93C1076,-105.37 1076,-135.8 1076,-135.8 1076,-135.8 719.75,-135.8 719.75,-135.8"/>
<polygon fill="black" stroke="black" points="719.75,-132.3 709.75,-135.8 719.75,-139.3 719.75,-132.3"/>
</g>
<!-- ContactComponent -->
<g id="node2" class="node">
<title>ContactComponent</title>
<polygon fill="#ffffb3" stroke="black" points="1005.38,-84.8 880.62,-84.8 880.62,-48.8 1005.38,-48.8 1005.38,-84.8"/>
<text text-anchor="middle" x="943" y="-62.6" font-family="Times,serif" font-size="14.00">ContactComponent</text>
</g>
<!-- ContactComponent&#45;&gt;AppModule -->
<g id="edge2" class="edge">
<title>ContactComponent&#45;&gt;AppModule</title>
<path fill="none" stroke="black" d="M943,-85.07C943,-103.36 943,-128.8 943,-128.8 943,-128.8 719.77,-128.8 719.77,-128.8"/>
<polygon fill="black" stroke="black" points="719.77,-125.3 709.77,-128.8 719.77,-132.3 719.77,-125.3"/>
</g>
<!-- HomeComponent -->
<g id="node3" class="node">
<title>HomeComponent</title>
<polygon fill="#ffffb3" stroke="black" points="862.55,-84.8 747.45,-84.8 747.45,-48.8 862.55,-48.8 862.55,-84.8"/>
<text text-anchor="middle" x="805" y="-62.6" font-family="Times,serif" font-size="14.00">HomeComponent</text>
</g>
<!-- HomeComponent&#45;&gt;AppModule -->
<g id="edge3" class="edge">
<title>HomeComponent&#45;&gt;AppModule</title>
<path fill="none" stroke="black" d="M805,-84.81C805,-100.85 805,-121.8 805,-121.8 805,-121.8 719.85,-121.8 719.85,-121.8"/>
<polygon fill="black" stroke="black" points="719.85,-118.3 709.85,-121.8 719.85,-125.3 719.85,-118.3"/>
</g>
<!-- NavbarComponent -->
<g id="node4" class="node">
<title>NavbarComponent</title>
<polygon fill="#ffffb3" stroke="black" points="729.03,-84.8 606.97,-84.8 606.97,-48.8 729.03,-48.8 729.03,-84.8"/>
<text text-anchor="middle" x="668" y="-62.6" font-family="Times,serif" font-size="14.00">NavbarComponent</text>
</g>
<!-- NavbarComponent&#45;&gt;AppModule -->
<g id="edge4" class="edge">
<title>NavbarComponent&#45;&gt;AppModule</title>
<path fill="none" stroke="black" d="M668,-84.91C668,-84.91 668,-103.79 668,-103.79"/>
<polygon fill="black" stroke="black" points="664.5,-103.79 668,-113.79 671.5,-103.79 664.5,-103.79"/>
</g>
<!-- NotFoundComponent -->
<g id="node5" class="node">
<title>NotFoundComponent</title>
<polygon fill="#ffffb3" stroke="black" points="589.11,-84.8 450.89,-84.8 450.89,-48.8 589.11,-48.8 589.11,-84.8"/>
<text text-anchor="middle" x="520" y="-62.6" font-family="Times,serif" font-size="14.00">NotFoundComponent</text>
</g>
<!-- NotFoundComponent&#45;&gt;AppModule -->
<g id="edge5" class="edge">
<title>NotFoundComponent&#45;&gt;AppModule</title>
<path fill="none" stroke="black" d="M520,-84.81C520,-100.85 520,-121.8 520,-121.8 520,-121.8 615.99,-121.8 615.99,-121.8"/>
<polygon fill="black" stroke="black" points="615.99,-125.3 625.99,-121.8 615.98,-118.3 615.99,-125.3"/>
</g>
<!-- SearchBarComponent -->
<g id="node6" class="node">
<title>SearchBarComponent</title>
<polygon fill="#ffffb3" stroke="black" points="432.63,-84.8 293.37,-84.8 293.37,-48.8 432.63,-48.8 432.63,-84.8"/>
<text text-anchor="middle" x="363" y="-62.6" font-family="Times,serif" font-size="14.00">SearchBarComponent</text>
</g>
<!-- SearchBarComponent&#45;&gt;AppModule -->
<g id="edge6" class="edge">
<title>SearchBarComponent&#45;&gt;AppModule</title>
<path fill="none" stroke="black" d="M363,-85.07C363,-103.36 363,-128.8 363,-128.8 363,-128.8 616.23,-128.8 616.23,-128.8"/>
<polygon fill="black" stroke="black" points="616.23,-132.3 626.23,-128.8 616.23,-125.3 616.23,-132.3"/>
</g>
<!-- SearchComponent -->
<g id="node7" class="node">
<title>SearchComponent</title>
<polygon fill="#ffffb3" stroke="black" points="274.92,-84.8 155.08,-84.8 155.08,-48.8 274.92,-48.8 274.92,-84.8"/>
<text text-anchor="middle" x="215" y="-62.6" font-family="Times,serif" font-size="14.00">SearchComponent</text>
</g>
<!-- SearchComponent&#45;&gt;AppModule -->
<g id="edge7" class="edge">
<title>SearchComponent&#45;&gt;AppModule</title>
<path fill="none" stroke="black" d="M215,-84.93C215,-105.37 215,-135.8 215,-135.8 215,-135.8 616.19,-135.8 616.19,-135.8"/>
<polygon fill="black" stroke="black" points="616.19,-139.3 626.19,-135.8 616.19,-132.3 616.19,-139.3"/>
</g>
<!-- TableComponent -->
<g id="node8" class="node">
<title>TableComponent</title>
<polygon fill="#ffffb3" stroke="black" points="137.7,-84.8 24.3,-84.8 24.3,-48.8 137.7,-48.8 137.7,-84.8"/>
<text text-anchor="middle" x="81" y="-62.6" font-family="Times,serif" font-size="14.00">TableComponent</text>
</g>
<!-- TableComponent&#45;&gt;AppModule -->
<g id="edge8" class="edge">
<title>TableComponent&#45;&gt;AppModule</title>
<path fill="none" stroke="black" d="M81,-84.81C81,-107.29 81,-142.8 81,-142.8 81,-142.8 616.25,-142.8 616.25,-142.8"/>
<polygon fill="black" stroke="black" points="616.26,-146.3 626.25,-142.8 616.25,-139.3 616.26,-146.3"/>
</g>
<!-- AppComponent  -->
<g id="node11" class="node">
<title>AppComponent </title>
<polygon fill="#80b1d3" stroke="black" points="722.44,-214.8 613.56,-214.8 613.56,-178.8 722.44,-178.8 722.44,-214.8"/>
<text text-anchor="middle" x="668" y="-192.6" font-family="Times,serif" font-size="14.00">AppComponent </text>
</g>
<!-- AppModule&#45;&gt;AppComponent  -->
<g id="edge10" class="edge">
<title>AppModule&#45;&gt;AppComponent </title>
<path fill="none" stroke="black" stroke-dasharray="1,5" d="M668,-149.91C668,-149.91 668,-168.79 668,-168.79"/>
<polygon fill="black" stroke="black" points="664.5,-168.79 668,-178.79 671.5,-168.79 664.5,-168.79"/>
</g>
<!-- AppRoutingModule -->
<g id="node10" class="node">
<title>AppRoutingModule</title>
<polygon fill="#8dd3c7" stroke="black" points="1281.27,-84.8 1278.27,-88.8 1257.27,-88.8 1254.27,-84.8 1152.73,-84.8 1152.73,-48.8 1281.27,-48.8 1281.27,-84.8"/>
<text text-anchor="middle" x="1217" y="-62.6" font-family="Times,serif" font-size="14.00">AppRoutingModule</text>
</g>
<!-- AppRoutingModule&#45;&gt;AppModule -->
<g id="edge9" class="edge">
<title>AppRoutingModule&#45;&gt;AppModule</title>
<path fill="none" stroke="black" d="M1217,-84.81C1217,-107.29 1217,-142.8 1217,-142.8 1217,-142.8 719.71,-142.8 719.71,-142.8"/>
<polygon fill="black" stroke="black" points="719.71,-139.3 709.71,-142.8 719.71,-146.3 719.71,-139.3"/>
</g>
</g>
</svg>
